<?xml version="1.0" encoding="UTF-8" standalone="no" ?>
<!DOCTYPE svg PUBLIC "-//W3C//DTD SVG 1.1//EN" "http://www.w3.org/Graphics/SVG/1.1/DTD/svg11.dtd">
<svg xmlns="http://www.w3.org/2000/svg" xmlns:xlink="http://www.w3.org/1999/xlink" version="1.1" width="650.6681249999999" height="208.377" xml:space="preserve">
<desc>Created with Fabric.js 1.6.0-rc.1</desc>
<defs></defs>
  <g transform="translate(490.35 146.81) scale(1.2 1.2)">
   <text font-family="Rispa" font-size="40" font-weight="normal" style="stroke: none; stroke-width: 1; stroke-dasharray: none; stroke-linecap: butt; stroke-linejoin: miter; stroke-miterlimit: 10; fill: #000000; fill-rule: nonzero; opacity: 1;" ><tspan x="-125.76" y="8.98" style="stroke: none; stroke-width: 0; stroke-dasharray: none; stroke-linecap: butt; stroke-linejoin: miter; stroke-miterlimit: 4; fill: #000000; fill-rule: ; opacity: 1;">T</tspan><tspan x="-99" y="8.98" style="stroke: none; stroke-width: 0; stroke-dasharray: none; stroke-linecap: butt; stroke-linejoin: miter; stroke-miterlimit: 4; fill: #000000; fill-rule: ; opacity: 1;">H</tspan><tspan x="-65.21" y="8.98" style="stroke: none; stroke-width: 0; stroke-dasharray: none; stroke-linecap: butt; stroke-linejoin: miter; stroke-miterlimit: 4; fill: #000000; fill-rule: ; opacity: 1;">O</tspan><tspan x="-18.98" y="8.98" style="stroke: none; stroke-width: 0; stroke-dasharray: none; stroke-linecap: butt; stroke-linejoin: miter; stroke-miterlimit: 4; fill: #000000; fill-rule: ; opacity: 1;">U</tspan><tspan x="13.36" y="8.98" style="stroke: none; stroke-width: 0; stroke-dasharray: none; stroke-linecap: butt; stroke-linejoin: miter; stroke-miterlimit: 4; fill: #000000; fill-rule: ; opacity: 1;">G</tspan><tspan x="43.14" y="8.98" style="stroke: none; stroke-width: 0; stroke-dasharray: none; stroke-linecap: butt; stroke-linejoin: miter; stroke-miterlimit: 4; fill: #000000; fill-rule: ; opacity: 1;">H</tspan><tspan x="76.93" y="8.98" style="stroke: none; stroke-width: 0; stroke-dasharray: none; stroke-linecap: butt; stroke-linejoin: miter; stroke-miterlimit: 4; fill: #000000; fill-rule: ; opacity: 1;">T</tspan><tspan x="103.69" y="8.98" style="stroke: none; stroke-width: 0; stroke-dasharray: none; stroke-linecap: butt; stroke-linejoin: miter; stroke-miterlimit: 4; fill: #000000; fill-rule: ; opacity: 1;">S</tspan></text>
 </g>
<g style="stroke: none; stroke-width: 1; stroke-dasharray: none; stroke-linecap: butt; stroke-linejoin: miter; stroke-miterlimit: 10; fill: none; fill-rule: nonzero; opacity: 1;" transform="translate(10 10) scale(1.62 1.7)" >
  <path d="m 4856.76 3076.08 c 0 243.74 -197.59 441.33 -441.33 441.33 c -243.74 0 -441.32 -197.59 -441.32 -441.33 c 0 -65.03 14.18 -126.71 39.43 -182.3 c 112.39 56.79 221.71 117.54 343.66 140.41 c 0 -27.58 9.19 -55.16 0 -73.55 c -36.78 -45.97 -91.94 -119.53 -73.55 -137.92 c 147.11 -119.52 321.79 73.56 468.9 36.78 c 22.98 -7.66 -62.42 -66.36 -49.08 -117.64 c 93.83 80.93 153.29 200.6 153.29 334.22" style="stroke: none; stroke-width: 1; stroke-dasharray: none; stroke-linecap: butt; stroke-linejoin: miter; stroke-miterlimit: 10; fill: rgb(241,186,42); fill-rule: nonzero; opacity: 1;" transform=" matrix(0.13333333187887225 0 0 -0.13333333187887225 -476.0303521405761 468.98799488406405) " stroke-linecap="round" />
  <path d="m 5475.85 2775.74 c 0.86 7.45 -142.46 -96.64 -411.76 -81.55 c -32.8 1.06 -67.81 5.61 -102.26 9.03 c -29.28 2.36 -64 -3.03 -101.42 -8.3 c -37.44 -5.22 -79.02 -12.4 -127.09 -6.08 c -11.75 0.45 -24.15 4.57 -36.55 8.36 l -9.29 2.93 l -4.65 1.51 l -1.16 0.37 l -0.58 0.19 c -10.51 18.37 22.71 -40.83 -23.72 41.22 l 0.49 2.81 l 4.7 22.53 c 9.45 29.95 29.41 53.14 48.14 69.82 c 19 17.02 37.72 29.17 51.72 41.21 l 2.71 2.22 l 1.35 1.12 l -4.99 -62.98 l -3.35 2.11 l -6.01 4.89 c -6.01 0.84 -9.2 5 -17.1 4.8 c -27.31 4.48 -69.03 -5.37 -109.61 -19.7 c -87.47 -24.92 -159.24 -82.92 -293.2 -87.2 c -32.41 4.97 -58.36 5.28 -98.52 37.45 c -21.46 17.42 -30.93 58.29 -23.36 80.52 c 5.73 23.33 15.4 37.38 24.25 50.23 c 36.63 47.78 75.11 75.95 111.87 106.25 c 18.35 14.64 36.52 28.69 52.71 42.21 c 3.89 3.31 7.98 6.71 11.25 9.78 l 4.73 4.46 l 2.09 2.05 l 0.27 0.26 c 56.92 -154.83 15.53 -42.9 28.13 -77.45 l -0.85 0.06 l -1.71 0.11 l -27.25 2.04 c -37.22 0.48 -76.58 -9.1 -114.53 -20.97 c -153.22 -51.62 -286.65 -138.31 -415.96 -175.86 c -68.6 -17.78 -124.66 -21.04 -179.97 -18.58 c -53.34 2.4 -103.8 26.82 -120.72 63.7 c -18.95 33.18 -17.36 67.37 -5.97 83.81 c 11.49 16.43 22.37 19.07 21.52 19.98 c 3.13 4.19 -48.61 -33.65 -2.08 -95.51 c 38.96 -60.96 158.13 -43.62 270.83 -5.56 c 116.1 45.71 237.13 140.74 404.14 208.56 c 42.42 15.75 88.48 30.23 140.95 32.21 c 13.06 0.23 26.56 -0.7 39.96 -1.26 l 2.53 -0.13 l 1.25 -0.07 c 12.91 -34.58 -28 77.37 29.1 -77.54 l -0.47 -0.51 l -3.75 -4.08 l -7.32 -7.5 c -4.84 -4.87 -9.34 -8.91 -13.97 -13.16 c -18.21 -16.37 -36 -31.03 -53.51 -45.87 c -34.18 -29.1 -70.78 -60.23 -91.83 -89.47 c -4.82 -6.67 -7.84 -13.68 -7.59 -13.95 c -21.85 5.55 -24.55 -5.31 -10.02 8.54 c 7.68 11.2 25.15 -6.47 43.2 -4.04 c 65.3 -0.74 164.26 51.64 253.57 78.44 c 46.99 13.67 96.71 28.95 158.13 17.71 c 14.83 -1.49 30.73 -10.46 45.29 -17.32 c 6.9 -4.59 13.23 -10.43 19.57 -15.91 l 9.22 -8.51 l 0.29 -1.28 c -0.43 -9.92 -2.72 -56.61 -3.89 -63.94 l -0.47 -0.36 l -1.88 -1.41 l -3.76 -2.8 c -20.12 -15.26 -38.35 -25.88 -51.67 -36.78 c -13.6 -10.85 -21.79 -20.77 -25.92 -30.38 l -2.28 -7.74 l -0.39 -0.95 c -46.18 81.91 -12.61 22.63 -22.83 40.89 l 0.35 -0.11 l 0.67 -0.24 l 2.69 -0.91 l 5.32 -1.92 c 7.09 -2.58 13.73 -6.1 22.36 -6.75 c 31.98 -6.9 69.52 -4.4 107.23 -1.81 c 37.92 2.11 76.58 5.78 117.51 -1.13 c 35.24 -6.69 66.85 -13.9 98.42 -18.04 c 252.16 -40.14 407.51 37.76 406.7 31.23" style="stroke: none; stroke-width: 1; stroke-dasharray: none; stroke-linecap: butt; stroke-linejoin: miter; stroke-miterlimit: 10; fill: rgba(109,195,239,1); fill-rule: nonzero; opacity: 1;" transform=" matrix(0.13333333187887225 0 0 -0.13333333187887225 -476.0303521405761 468.98799488406405) " stroke-linecap="round" />
  <path d="m 4969.12 3104.47 c -82.87 68.58 -136.76 85.21 -199.44 72.66 c -62.56 -12.54 -121.55 -51.09 -165.72 -99.09 c 25.95 -14.6 56.02 -25.09 52.26 -22.88 c 1.9 -1.11 4.65 -2.59 6.36 -3.54 c 50.43 137.47 -56.15 214.88 -182.48 223.06 c -72.51 3.33 -145.27 -8.21 -215.1 -27.18 c -7.98 -2.17 -82.87 -29.86 -93.23 -31.91 c 197.17 38.94 301.98 10.03 328.19 5.21 c 35.48 -5.93 96.17 -39.27 101.18 -85.6 c 2.5 -16.47 -2.31 -54.97 -6.49 -66.16 c 17.57 -9.75 38.48 -17.9 60.71 -30.37 c 70 69.93 204.4 140.31 311.56 64.58 l 2.2 1.22" style="stroke: none; stroke-width: 1; stroke-dasharray: none; stroke-linecap: butt; stroke-linejoin: miter; stroke-miterlimit: 10; fill: rgb(71,111,191); fill-rule: nonzero; opacity: 1;" transform=" matrix(0.13333333187887225 0 0 -0.13333333187887225 -476.0303521405761 468.98799488406405) " stroke-linecap="round" />
</g>
  <g transform="translate(390.26 80.61) scale(0.8 0.8)">
   <text font-family="ADAMCG PRO" font-size="40" font-weight="bold" style="stroke: none; stroke-width: 1; stroke-dasharray: none; stroke-linecap: butt; stroke-linejoin: miter; stroke-miterlimit: 10; fill: #000000; fill-rule: nonzero; opacity: 1;" ><tspan x="-93.87" y="8.98" style="stroke: none; stroke-width: 0; stroke-dasharray: none; stroke-linecap: butt; stroke-linejoin: miter; stroke-miterlimit: 4; fill: #000000; fill-rule: ; opacity: 1;">L</tspan><tspan x="-73.44" y="8.98" style="stroke: none; stroke-width: 0; stroke-dasharray: none; stroke-linecap: butt; stroke-linejoin: miter; stroke-miterlimit: 4; fill: #000000; fill-rule: ; opacity: 1;">e</tspan><tspan x="-50.18" y="8.98" style="stroke: none; stroke-width: 0; stroke-dasharray: none; stroke-linecap: butt; stroke-linejoin: miter; stroke-miterlimit: 4; fill: #000000; fill-rule: ; opacity: 1;">i</tspan><tspan x="-39.39" y="8.98" style="stroke: none; stroke-width: 0; stroke-dasharray: none; stroke-linecap: butt; stroke-linejoin: miter; stroke-miterlimit: 4; fill: #000000; fill-rule: ; opacity: 1;">s</tspan><tspan x="-18.28" y="8.98" style="stroke: none; stroke-width: 0; stroke-dasharray: none; stroke-linecap: butt; stroke-linejoin: miter; stroke-miterlimit: 4; fill: #000000; fill-rule: ; opacity: 1;">u</tspan><tspan x="9.36" y="8.98" style="stroke: none; stroke-width: 0; stroke-dasharray: none; stroke-linecap: butt; stroke-linejoin: miter; stroke-miterlimit: 4; fill: #000000; fill-rule: ; opacity: 1;">r</tspan><tspan x="34.98" y="8.98" style="stroke: none; stroke-width: 0; stroke-dasharray: none; stroke-linecap: butt; stroke-linejoin: miter; stroke-miterlimit: 4; fill: #000000; fill-rule: ; opacity: 1;">e</tspan><tspan x="58.24" y="8.98" style="stroke: none; stroke-width: 0; stroke-dasharray: none; stroke-linecap: butt; stroke-linejoin: miter; stroke-miterlimit: 4; fill: #000000; fill-rule: ; opacity: 1;"> </tspan><tspan x="70.23" y="8.98" style="stroke: none; stroke-width: 0; stroke-dasharray: none; stroke-linecap: butt; stroke-linejoin: miter; stroke-miterlimit: 4; fill: #000000; fill-rule: ; opacity: 1;">&amp;</tspan></text>
 </g>
</svg>